<svg width="20" height="18" viewBox="0 0 20 18" fill="none" xmlns="http://www.w3.org/2000/svg">
<path d="M19.7804 1.07151C19.6339 0.925081 19.4599 0.851624 19.2596 0.851624H7.40754C7.20695 0.851624 7.03324 0.925081 6.88673 1.07151C6.74018 1.21814 6.66684 1.39185 6.66684 1.59244V3.81472H4.81489C4.60652 3.81472 4.38071 3.86487 4.13768 3.96516C3.89461 4.06562 3.69982 4.18886 3.55327 4.33549L1.2615 6.62721C1.16125 6.72751 1.07453 6.84316 1.00108 6.97443C0.927822 7.10537 0.873783 7.22334 0.839041 7.32732C0.80438 7.43159 0.779164 7.57417 0.763881 7.75566C0.748557 7.93708 0.738747 8.07017 0.734896 8.1551C0.731207 8.2399 0.731207 8.38657 0.734896 8.59495C0.738787 8.8034 0.740733 8.93831 0.740733 9.00014V12.7038C0.540186 12.7038 0.366596 12.7771 0.219925 12.9239C0.0733355 13.0702 0 13.2439 0 13.4446C0 13.5602 0.0153238 13.6625 0.0462147 13.7511C0.0771462 13.8399 0.129158 13.9112 0.202615 13.9653C0.27587 14.0195 0.339557 14.0637 0.393515 14.0985C0.447634 14.1332 0.53828 14.1562 0.665573 14.1679C0.792867 14.1795 0.879621 14.1873 0.925957 14.1912C0.972293 14.1948 1.0706 14.1948 1.22104 14.1912C1.37165 14.1873 1.4584 14.1854 1.48159 14.1854H2.22228C2.22228 15.003 2.51169 15.7014 3.09027 16.2802C3.66905 16.8588 4.36729 17.1482 5.18525 17.1482C6.00313 17.1482 6.70146 16.8588 7.28012 16.2802C7.8589 15.7014 8.14811 15.003 8.14811 14.1854H12.5927C12.5927 15.003 12.8821 15.7014 13.4607 16.2802C14.0393 16.8588 14.7376 17.1482 15.5556 17.1482C16.3737 17.1482 17.0716 16.8588 17.6505 16.2802C18.2292 15.7014 18.5185 15.003 18.5185 14.1854C18.5415 14.1854 18.6284 14.1873 18.7788 14.1912C18.9293 14.1948 19.0277 14.1948 19.074 14.1912C19.1203 14.1873 19.2073 14.1795 19.3345 14.1679C19.4618 14.1562 19.5523 14.1332 19.6064 14.0985C19.6606 14.0638 19.7241 14.0195 19.7973 13.9653C19.8707 13.9112 19.9229 13.8399 19.9537 13.7511C19.9849 13.6625 20 13.5601 20 13.4446V1.59256C20.0002 1.39193 19.9269 1.21842 19.7804 1.07151ZM6.22671 15.227C5.93365 15.5201 5.58631 15.667 5.18509 15.667C4.78383 15.667 4.43658 15.5203 4.14335 15.227C3.85013 14.934 3.70359 14.5866 3.70359 14.1854C3.70359 13.7842 3.8503 13.4367 4.14335 13.1435C4.43653 12.8505 4.78379 12.7038 5.18509 12.7038C5.58631 12.7038 5.93361 12.8504 6.22671 13.1435C6.52005 13.4367 6.66668 13.7842 6.66668 14.1854C6.66668 14.5866 6.52005 14.934 6.22671 15.227ZM6.66668 8.25924H2.22212V7.91214C2.22212 7.81181 2.25678 7.72692 2.32622 7.65744L4.58321 5.40053C4.65261 5.33105 4.73762 5.29643 4.83791 5.29643H6.66668V8.25924ZM16.5972 15.227C16.3041 15.5201 15.9568 15.667 15.5556 15.667C15.1543 15.667 14.8068 15.5203 14.5137 15.227C14.2206 14.934 14.0739 14.5866 14.0739 14.1854C14.0739 13.7842 14.2206 13.4367 14.5137 13.1435C14.8068 12.8505 15.1543 12.7038 15.5556 12.7038C15.9568 12.7038 16.3041 12.8504 16.5972 13.1435C16.8903 13.4368 17.0371 13.7842 17.0371 14.1854C17.0371 14.5866 16.8906 14.934 16.5972 15.227Z" fill="#22297A"/>
</svg>
