<svg width="127" height="136" viewBox="0 0 127 136" fill="none" xmlns="http://www.w3.org/2000/svg">
<path d="M36.0199 89.5457H110.956C119.453 89.5457 126.385 82.6139 126.385 74.1168V42.5883C126.385 42.5604 126.385 42.5045 126.385 42.4765C126.385 42.3927 126.385 42.3368 126.385 42.2529C126.385 42.197 126.385 42.1411 126.357 42.0852C126.357 42.0293 126.329 41.9454 126.329 41.8895C126.329 41.8336 126.301 41.7777 126.301 41.7218C126.273 41.6659 126.273 41.61 126.245 41.5262C126.217 41.4703 126.217 41.4144 126.189 41.3585C126.161 41.3026 126.161 41.2467 126.133 41.1908C126.105 41.1349 126.077 41.079 126.049 40.9951C126.021 40.9392 125.994 40.8833 125.966 40.8554C125.938 40.7995 125.91 40.7436 125.882 40.6877C125.854 40.6318 125.826 40.6038 125.798 40.5479C125.77 40.492 125.714 40.4361 125.686 40.3802C125.658 40.3243 125.63 40.2963 125.574 40.2404C125.546 40.1845 125.49 40.1566 125.462 40.1007C125.435 40.0448 125.379 40.0168 125.351 39.9609C125.323 39.905 125.267 39.8771 125.239 39.8491C125.183 39.7932 125.155 39.7653 125.099 39.7094C125.043 39.6814 125.015 39.6255 124.959 39.5976C124.903 39.5696 124.848 39.5137 124.792 39.4858C124.736 39.4578 124.708 39.4299 124.652 39.4019C124.596 39.374 124.54 39.346 124.484 39.2901C124.428 39.2622 124.372 39.2342 124.316 39.2063C124.261 39.1783 124.205 39.1504 124.149 39.1224C124.093 39.0945 124.037 39.0665 123.981 39.0386C123.925 39.0106 123.869 39.0106 123.813 38.9827C123.757 38.9547 123.674 38.9268 123.618 38.9268C123.562 38.9268 123.506 38.8988 123.478 38.8988C123.394 38.8709 123.338 38.8708 123.254 38.8708C123.226 38.8708 123.198 38.8429 123.143 38.8429L28.1657 25.734V12.4853C28.1657 12.3455 28.1657 12.2058 28.1377 12.094C28.1377 12.066 28.1377 12.0381 28.1098 11.9822C28.1098 11.8983 28.0818 11.8145 28.0818 11.7306C28.0539 11.6468 28.0539 11.5909 28.0259 11.507C28.0259 11.4511 27.998 11.4231 27.998 11.3672C27.97 11.2834 27.9421 11.1995 27.9141 11.1157C27.9141 11.0877 27.8862 11.0318 27.8862 11.0039C27.8582 10.92 27.8303 10.8641 27.7744 10.7803C27.7464 10.7523 27.7464 10.6964 27.7185 10.6685C27.6905 10.6126 27.6626 10.5567 27.6067 10.5008C27.5787 10.4449 27.5508 10.4169 27.5228 10.361C27.4949 10.3051 27.4669 10.2772 27.439 10.2213C27.411 10.1654 27.3551 10.1095 27.3272 10.0536C27.2992 10.0256 27.2713 9.99766 27.2433 9.96971C27.1874 9.9138 27.1315 9.8579 27.0756 9.802C27.0477 9.77405 27.0197 9.7461 26.9918 9.71815C26.9359 9.66225 26.88 9.60634 26.7961 9.55044C26.7681 9.52249 26.7122 9.49454 26.6843 9.46659C26.6284 9.41069 26.5725 9.38274 26.5166 9.32684C26.4327 9.27094 26.3489 9.21503 26.293 9.18708C26.265 9.15913 26.2371 9.15913 26.2091 9.13118C26.0973 9.07528 25.9576 9.01938 25.8458 8.96348L5.24602 0.298724C3.31741 -0.511849 1.1093 0.382577 0.298724 2.31118C-0.511849 4.23979 0.382577 6.4479 2.31118 7.25848L20.591 14.9729V32.0788V34.79V55.5854V74.1727V97.6514C20.591 105.478 26.4607 111.962 34.0354 112.941C32.6658 115.232 31.8552 117.916 31.8552 120.767C31.8552 129.18 38.7031 136 47.0884 136C55.4736 136 62.3216 129.152 62.3216 120.767C62.3216 117.972 61.5669 115.316 60.2253 113.08H94.1576C92.8159 115.344 92.0613 117.972 92.0613 120.767C92.0613 129.18 98.9092 136 107.294 136C115.68 136 122.528 129.152 122.528 120.767C122.528 112.381 115.68 105.534 107.294 105.534H36.0199C31.6595 105.534 28.1377 101.984 28.1377 97.6514V87.4214C30.4297 88.7631 33.1409 89.5457 36.0199 89.5457ZM54.8028 120.739C54.8028 124.987 51.3369 128.425 47.1163 128.425C42.8958 128.425 39.4299 124.959 39.4299 120.739C39.4299 116.518 42.8958 113.052 47.1163 113.052C51.3369 113.052 54.8028 116.49 54.8028 120.739ZM115.009 120.739C115.009 124.987 111.543 128.425 107.322 128.425C103.102 128.425 99.6359 124.959 99.6359 120.739C99.6359 116.518 103.102 113.052 107.322 113.052C111.543 113.052 115.009 116.49 115.009 120.739ZM110.956 81.999H36.0199C31.6595 81.999 28.1377 78.4492 28.1377 74.1168V55.5295V34.7341V33.3366L118.838 45.8306V74.0889C118.838 78.4771 115.288 81.999 110.956 81.999Z" fill="black"/>
</svg>
