<svg width="21" height="13" viewBox="0 0 21 13" fill="none" xmlns="http://www.w3.org/2000/svg">
<path fill-rule="evenodd" clip-rule="evenodd" d="M6.63265 7.8V5.57143H12.8958C12.9526 5.89643 13 6.22143 13 6.64857C13 10.3629 10.4606 13 6.63265 13C2.96574 13 0 10.0936 0 6.5C0 2.90643 2.96574 0 6.63265 0C8.42347 0 9.92055 0.640714 11.0765 1.69929L9.27624 3.39857C8.78353 2.93429 7.92128 2.39571 6.63265 2.39571C4.36808 2.39571 2.52041 4.23429 2.52041 6.5C2.52041 8.76571 4.36808 10.6043 6.63265 10.6043C9.25729 10.6043 10.2427 8.75643 10.3943 7.8H6.63265ZM19 6H21V8H19V10H17V8H15V6H17V4H19V6Z" fill="white"/>
</svg>
