<?xml version="1.0" encoding="UTF-8"?>
<svg fill="none" viewBox="0 0 24 24" xmlns="http://www.w3.org/2000/svg">
<g fill="#fff" opacity=".6">
<path d="m16.9 1h-9.8c-3.4 0-6.1 2.7-6.1 6.1v9.8c0 3.4 2.7 6.1 6.1 6.1h9.8c3.4 0 6.1-2.7 6.1-6.1v-9.8c0-3.4-2.7-6.1-6.1-6.1zm3.7 15.9c0 2-1.6 3.7-3.7 3.7h-9.8c-2 0-3.7-1.6-3.7-3.7v-9.8c0-2 1.6-3.7 3.7-3.7h9.8c2 0 3.7 1.6 3.7 3.7v9.8z"/>
<path d="m12 6.4c-3.1 0-5.6 2.5-5.6 5.6s2.5 5.6 5.6 5.6 5.6-2.5 5.6-5.6-2.5-5.6-5.6-5.6zm0 8.8c-1.8 0-3.2-1.4-3.2-3.2s1.4-3.2 3.2-3.2 3.2 1.4 3.2 3.2-1.4 3.2-3.2 3.2z"/>
<path d="m17.9 4.9c-0.7 0-1.2 0.5-1.2 1.2s0.5 1.2 1.2 1.2 1.2-0.5 1.2-1.2-0.5-1.2-1.2-1.2z"/>
</g>
</svg>
