<svg width="28" height="22" viewBox="0 0 28 22" fill="none" xmlns="http://www.w3.org/2000/svg">
<path d="M24.5818 0.345703H3.42396C1.53528 0.345703 0 1.88098 0 3.76966V18.2302C0 20.1189 1.53528 21.6542 3.42396 21.6542H24.576C26.4647 21.6542 28 20.1189 28 18.2302V3.77546C28.0058 1.88678 26.4705 0.345703 24.5818 0.345703ZM26.4415 18.2302C26.4415 19.2557 25.6073 20.09 24.5818 20.09H3.42396C2.39851 20.09 1.56425 19.2557 1.56425 18.2302V3.77546C1.56425 2.75001 2.39851 1.91574 3.42396 1.91574H24.576C25.6015 1.91574 26.4358 2.75001 26.4358 3.77546V18.2302H26.4415Z" fill="white"/>
<path d="M17.6586 10.8205L24.5065 4.67935C24.8251 4.38968 24.8541 3.89723 24.5644 3.57279C24.2747 3.25415 23.7823 3.22518 23.4579 3.51486L14.0145 11.9908L12.1721 10.3454C12.1663 10.3396 12.1605 10.3338 12.1605 10.328C12.12 10.2875 12.0794 10.2527 12.0331 10.2179L4.53628 3.50906C4.21184 3.21939 3.71939 3.24836 3.42972 3.57279C3.14004 3.89723 3.16901 4.38968 3.49345 4.67935L10.4225 10.8726L3.52241 17.3324C3.20957 17.6278 3.19218 18.1203 3.48765 18.4389C3.64408 18.6011 3.85264 18.688 4.06121 18.688C4.2524 18.688 4.44358 18.6185 4.59421 18.4795L11.5986 11.927L13.4988 13.6245C13.6495 13.7578 13.8349 13.8215 14.0202 13.8215C14.2056 13.8215 14.3968 13.752 14.5417 13.6187L16.4941 11.8691L23.4579 18.4853C23.6085 18.6301 23.8055 18.6996 23.9967 18.6996C24.2052 18.6996 24.408 18.6185 24.5644 18.4563C24.8599 18.1435 24.8483 17.6452 24.5355 17.3497L17.6586 10.8205Z" fill="white"/>
</svg>
