<svg width="19" height="24" viewBox="0 0 19 24" fill="none" xmlns="http://www.w3.org/2000/svg">
<path d="M9.99386 0.778809C5.03487 0.778809 0.998047 4.81563 0.998047 9.77462C0.998047 10.3392 1.0498 10.9085 1.15801 11.4637C1.16272 11.4966 1.18154 11.5954 1.21918 11.7648C1.35562 12.3717 1.55793 12.9693 1.82141 13.5386C2.79062 15.8205 4.92195 19.3256 9.59865 23.0802C9.71627 23.1742 9.85742 23.2213 9.99857 23.2213C10.1397 23.2213 10.2809 23.1742 10.3985 23.0802C15.0705 19.3256 17.2065 15.8205 18.1757 13.5386C18.4392 12.9693 18.6415 12.3764 18.778 11.7648C18.8156 11.5954 18.8344 11.4966 18.8391 11.4637C18.9426 10.9085 18.9991 10.3392 18.9991 9.77462C18.9897 4.81563 14.9529 0.778809 9.99386 0.778809ZM17.5782 11.2426C17.5782 11.252 17.5735 11.2614 17.5735 11.2708C17.5688 11.2943 17.5547 11.3649 17.5312 11.4731C17.5312 11.4778 17.5312 11.4778 17.5312 11.4825C17.4135 12.0095 17.2394 12.5223 17.0089 13.0163C17.0042 13.021 17.0042 13.0304 16.9995 13.0351C16.1197 15.1194 14.1907 18.2999 9.99386 21.7675C5.79707 18.2999 3.86805 15.1194 2.98823 13.0351C2.98353 13.0304 2.98353 13.021 2.97882 13.0163C2.75298 12.527 2.5789 12.0095 2.45657 11.4825C2.45657 11.4778 2.45657 11.4778 2.45657 11.4731C2.42834 11.3649 2.41893 11.2943 2.41423 11.2708C2.41423 11.2614 2.40952 11.252 2.40952 11.2379C2.31543 10.7532 2.26838 10.2639 2.26838 9.76992C2.26838 5.51196 5.73591 2.04443 9.99386 2.04443C14.2518 2.04443 17.7194 5.51196 17.7194 9.76992C17.7194 10.2686 17.6723 10.7627 17.5782 11.2426Z" fill="#23364B"/>
<path d="M9.99602 4.16163C6.84843 4.16163 4.28424 6.72581 4.28424 9.8734C4.28424 13.021 6.84843 15.5852 9.99602 15.5852C13.1436 15.5852 15.7078 13.021 15.7078 9.8734C15.7078 6.72581 13.1436 4.16163 9.99602 4.16163ZM9.99602 14.3149C7.54475 14.3149 5.55457 12.32 5.55457 9.8734C5.55457 7.42684 7.54946 5.43196 9.99602 5.43196C12.4426 5.43196 14.4375 7.42684 14.4375 9.8734C14.4375 12.32 12.4473 14.3149 9.99602 14.3149Z" fill="#23364B"/>
</svg>
