<?xml version="1.0" encoding="UTF-8"?>
<svg fill="none" viewBox="0 0 24 24" xmlns="http://www.w3.org/2000/svg">
<path d="m7.0376 15.295c1.9726 2.358 4.3473 4.2146 7.0576 5.5283 1.0319 0.4891 2.4119 1.0693 3.9494 1.1687 0.0954 0.0042 0.1865 0.0083 0.2819 0.0083 1.0319 0 1.8607-0.3564 2.5362-1.0899 0.0042-0.0042 0.0124-0.0125 0.0166-0.0208 0.2404-0.29 0.5139-0.5511 0.7998-0.8288 0.1948-0.1865 0.3937-0.3813 0.5844-0.5802 0.8827-0.92 0.8827-2.0887-0.0083-2.9797l-2.4907-2.4907c-0.4227-0.4392-0.9283-0.6713-1.4588-0.6713-0.5304 0-1.0402 0.2321-1.4753 0.6672l-1.4836 1.4836c-0.1368-0.0787-0.2777-0.1492-0.4103-0.2155-0.1658-0.0829-0.3191-0.1616-0.4559-0.2486-1.351-0.8579-2.5777-1.9768-3.7505-3.4149-0.5926-0.7501-0.99047-1.38-1.2681-2.0223 0.38956-0.35226 0.75423-0.7211 1.1065-1.0816 0.1243-0.12847 0.2528-0.25694 0.3812-0.38541 0.4476-0.44757 0.688-0.9656 0.688-1.4919 0-0.52631-0.2362-1.0443-0.688-1.4919l-1.2349-1.235c-0.14505-0.14505-0.28181-0.28595-0.42271-0.431-0.27352-0.28181-0.55947-0.5719-0.84128-0.83299-0.42685-0.41857-0.9283-0.63821-1.4588-0.63821-0.52632 0-1.0319 0.21964-1.4753 0.64235l-1.5499 1.5499c-0.56362 0.56362-0.88272 1.2474-0.94903 2.039-0.07874 0.99047 0.10361 2.0431 0.57605 3.3154 0.72524 1.9685 1.8193 3.7961 3.4438 5.7481zm-3.0087-8.9764c0.04973-0.55119 0.26109-1.0112 0.65893-1.409l1.5416-1.5416c0.24037-0.23207 0.5056-0.35226 0.76254-0.35226 0.25279 0 0.50974 0.12019 0.74596 0.36055 0.27766 0.25694 0.53875 0.52632 0.82055 0.81227 0.14091 0.14505 0.28595 0.29009 0.431 0.43928l1.235 1.235c0.2569 0.25694 0.3896 0.51803 0.3896 0.77497s-0.1327 0.51803-0.3896 0.77497c-0.1285 0.12847-0.25693 0.26109-0.3854 0.38956-0.38542 0.38955-0.74596 0.75839-1.1438 1.1106l-0.02072 0.02072c-0.34397 0.34397-0.29009 0.67136-0.20721 0.92001 0.00414 0.01244 0.00829 0.02073 0.01243 0.03316 0.31911 0.76665 0.76254 1.496 1.4546 2.3664 1.2433 1.5334 2.5529 2.7227 3.995 3.6386 0.1782 0.1161 0.3689 0.2072 0.5471 0.2984 0.1657 0.0829 0.3191 0.1616 0.4558 0.2487 0.0166 0.0082 0.029 0.0165 0.0456 0.0248 0.1368 0.0705 0.2694 0.1036 0.402 0.1036 0.3316 0 0.5471-0.2113 0.6175-0.2818l1.5499-1.5499c0.2404-0.2404 0.5015-0.3689 0.7584-0.3689 0.315 0 0.5719 0.1948 0.7336 0.3689l2.4989 2.4948c0.4973 0.4973 0.4932 1.0361-0.0124 1.5624-0.1741 0.1865-0.3564 0.3647-0.5512 0.5512-0.2901 0.2818-0.5926 0.5719-0.8661 0.8993-0.4766 0.5138-1.0444 0.7542-1.7779 0.7542-0.0705 0-0.145-0.0041-0.2155-0.0083-1.3593-0.087-2.6233-0.6175-3.5723-1.0692-2.5777-1.2474-4.8405-3.017-6.7178-5.2632-1.5458-1.8607-2.586-3.593-3.2739-5.4496-0.42685-1.1397-0.58848-2.0555-0.52217-2.8885z" fill="#23364B" stroke="#23364B" stroke-width=".3"/>
</svg>
