<svg width="24" height="31" viewBox="0 0 24 31" fill="none" xmlns="http://www.w3.org/2000/svg">
<path d="M13.7518 21.9091C11.9504 21.7697 11.1934 20.8764 9.78059 20.0188C9.00409 24.0929 8.05513 27.9983 5.24437 30.0385C4.3757 23.8809 6.51786 19.2559 7.51269 14.3467C5.81698 11.4922 7.71659 5.74667 11.2932 7.16245C15.6952 8.9032 7.48211 17.7764 12.9957 18.8846C18.7519 20.0417 21.1018 8.89683 17.5319 5.27176C12.3743 0.038064 2.51899 5.15283 3.73089 12.6451C4.02611 14.4767 5.91892 15.0328 4.48699 17.5602C1.18604 16.8291 0.201401 14.2257 0.327985 10.7548C0.532303 5.07339 5.43298 1.09534 10.3485 0.544825C16.5652 -0.150963 22.3999 2.82759 23.2053 8.67509C24.1113 15.2749 20.3988 22.4222 13.7518 21.9091Z" fill="white"/>
</svg>
