<svg width="20" height="20" viewBox="0 0 20 20" fill="none" xmlns="http://www.w3.org/2000/svg">
<path d="M0.626328 18.5945L5.37656 13.8837C4.10232 12.4309 3.33084 10.5354 3.33084 8.46375C3.33084 3.90342 7.07122 0.198425 11.6654 0.198425C16.264 0.198425 20 3.90772 20 8.46375C20 13.0198 16.2596 16.7291 11.6654 16.7291C9.57636 16.7291 7.66499 15.964 6.20005 14.7003L1.44982 19.4111C1.33713 19.5229 1.18543 19.583 1.03807 19.583C0.890713 19.583 0.739016 19.5272 0.626328 19.4111C0.400953 19.1876 0.400953 18.818 0.626328 18.5945ZM18.8341 8.46375C18.8341 4.54384 15.6182 1.35892 11.6698 1.35892C7.71701 1.35892 4.5054 4.54814 4.5054 8.46375C4.5054 12.3794 7.71701 15.5729 11.6698 15.5729C15.6182 15.5729 18.8341 12.3836 18.8341 8.46375Z" fill="#22297A"/>
</svg>
