<svg width="29" height="24" viewBox="0 0 29 24" fill="none" xmlns="http://www.w3.org/2000/svg">
<path d="M28.4248 3.1256C27.4036 3.57841 26.3052 3.88468 25.1532 4.02146C26.3294 3.31675 27.232 2.2017 27.6581 0.870873C26.5575 1.52376 25.3379 1.99739 24.0411 2.25268C23.0021 1.14613 21.5217 0.45459 19.8825 0.45459C16.7374 0.45459 14.1866 3.00539 14.1866 6.15045C14.1866 6.59689 14.2372 7.03144 14.3349 7.44857C9.60115 7.21112 5.40391 4.94365 2.59443 1.49657C2.10423 2.33763 1.82303 3.31675 1.82303 4.36043C1.82303 6.33608 2.82933 8.08022 4.35684 9.10139C3.4236 9.07208 2.54473 8.81593 1.77715 8.38818C1.77673 8.41239 1.77673 8.43661 1.77673 8.46039C1.77673 11.2202 3.74091 13.5221 6.34607 14.045C5.86862 14.1758 5.36441 14.245 4.84576 14.245C4.4779 14.245 4.12151 14.2098 3.77404 14.1435C4.49871 16.4059 6.60179 18.0527 9.09482 18.099C7.14508 19.627 4.68944 20.5373 2.02013 20.5373C1.56137 20.5373 1.10685 20.5105 0.66211 20.4574C3.18147 22.0741 6.17616 23.0167 9.39259 23.0167C19.8693 23.0167 25.5987 14.3376 25.5987 6.81013C25.5987 6.56333 25.5932 6.31739 25.5822 6.07356C26.6959 5.27073 27.6615 4.26783 28.4248 3.1256Z" fill="white"/>
</svg>
