<svg width="19" height="21" viewBox="0 0 19 21" fill="none" xmlns="http://www.w3.org/2000/svg">
<path d="M9.4239 11.3154C9.44564 11.3154 9.46738 11.3154 9.49347 11.3154C9.50217 11.3154 9.51087 11.3154 9.51957 11.3154C9.53261 11.3154 9.55001 11.3154 9.56305 11.3154C10.8372 11.2936 11.8679 10.8457 12.6289 9.98903C14.3032 8.10168 14.0248 4.86623 13.9944 4.55747C13.8857 2.23959 12.7898 1.13067 11.8853 0.61317C11.2112 0.226134 10.4241 0.0173949 9.54566 0H9.51522C9.51087 0 9.50217 0 9.49782 0H9.47173C8.98902 0 8.041 0.0782771 7.13212 0.595776C6.21888 1.11327 5.10561 2.2222 4.99689 4.55747C4.96645 4.86623 4.68813 8.10168 6.36239 9.98903C7.11907 10.8457 8.14972 11.2936 9.4239 11.3154ZM6.158 4.66618C6.158 4.65314 6.16235 4.64009 6.16235 4.63139C6.30586 1.51336 8.51936 1.1785 9.46738 1.1785H9.48478C9.49348 1.1785 9.50652 1.1785 9.51957 1.1785C10.6937 1.2046 12.6898 1.68296 12.8246 4.63139C12.8246 4.64444 12.8246 4.65749 12.8289 4.66618C12.8333 4.69662 13.1377 7.65376 11.7548 9.2106C11.2069 9.82812 10.4763 10.1325 9.51522 10.1412C9.50652 10.1412 9.50217 10.1412 9.49347 10.1412C9.48478 10.1412 9.48043 10.1412 9.47173 10.1412C8.51501 10.1325 7.78008 9.82812 7.23649 9.2106C5.85794 7.66246 6.15365 4.69228 6.158 4.66618Z" fill="#E5E5E5"/>
<path d="M18.4301 16.6817C18.4301 16.6773 18.4301 16.673 18.4301 16.6686C18.4301 16.6338 18.4258 16.5991 18.4258 16.5599C18.3997 15.6989 18.3432 13.6854 16.4558 13.0418C16.4428 13.0374 16.4254 13.0331 16.4123 13.0287C14.451 12.5286 12.8203 11.398 12.8029 11.3849C12.5376 11.1979 12.1723 11.2632 11.9853 11.5284C11.7983 11.7937 11.8636 12.159 12.1288 12.346C12.2028 12.3982 13.9335 13.6028 16.0992 14.1594C17.1125 14.5204 17.2255 15.6032 17.256 16.5947C17.256 16.6338 17.256 16.6686 17.2603 16.7034C17.2647 17.0948 17.2386 17.6993 17.169 18.0472C16.4645 18.4473 13.7031 19.8302 9.50219 19.8302C5.31872 19.8302 2.53988 18.4429 1.83104 18.0428C1.76146 17.6949 1.73102 17.0905 1.73972 16.6991C1.73972 16.6643 1.74407 16.6295 1.74407 16.5904C1.77451 15.5988 1.88757 14.516 2.90083 14.1551C5.06649 13.5984 6.79729 12.3895 6.87121 12.3416C7.13649 12.1546 7.20172 11.7894 7.01472 11.5241C6.82773 11.2588 6.46243 11.1936 6.19716 11.3806C6.17977 11.3936 4.55769 12.5243 2.58772 13.0244C2.57032 13.0287 2.55728 13.0331 2.54423 13.0374C0.656884 13.6854 0.60035 15.6989 0.574258 16.5556C0.574258 16.5947 0.574258 16.6295 0.569909 16.6643C0.569909 16.6686 0.569909 16.673 0.569909 16.6773C0.56556 16.9035 0.561212 18.0646 0.791694 18.6473C0.835182 18.7604 0.913459 18.856 1.01783 18.9213C1.14829 19.0083 4.27502 21 9.50654 21C14.7381 21 17.8648 19.0039 17.9953 18.9213C18.0953 18.856 18.1779 18.7604 18.2214 18.6473C18.4388 18.0689 18.4345 16.9078 18.4301 16.6817Z" fill="#E5E5E5"/>
</svg>
