<svg width="67" height="39" viewBox="0 0 67 39" fill="none" xmlns="http://www.w3.org/2000/svg">
<path fill-rule="evenodd" clip-rule="evenodd" d="M33.1113 37.9295H37.0357C37.0357 37.9295 38.2211 37.7993 38.8263 37.1469C39.3834 36.548 39.3656 35.4231 39.3656 35.4231C39.3656 35.4231 39.2889 30.1574 41.7328 29.3819C44.142 28.6181 47.2357 34.4712 50.5148 36.7218C52.9944 38.425 54.8786 38.0516 54.8786 38.0516L63.6463 37.9295C63.6463 37.9295 68.2329 37.6469 66.0581 34.0407C65.8799 33.7457 64.7916 31.3731 59.5392 26.4977C54.0417 21.395 54.7779 22.2204 61.4002 13.3938C65.4333 8.01843 67.0457 4.73667 66.5421 3.3311C66.0617 1.99237 63.0955 2.34621 63.0955 2.34621L53.2234 2.40771C53.2234 2.40771 52.4917 2.30789 51.9489 2.63232C51.4186 2.95051 51.0772 3.69207 51.0772 3.69207C51.0772 3.69207 49.5148 7.85176 47.4309 11.3893C43.035 18.8539 41.2774 19.2479 40.559 18.7844C38.8878 17.7042 39.3049 14.4447 39.3049 12.1291C39.3049 4.89533 40.4021 1.87918 37.1685 1.0984C36.0954 0.839032 35.3057 0.667903 32.5614 0.640273C29.039 0.603729 26.0576 0.650967 24.3695 1.47809C23.2464 2.02802 22.3801 3.25355 22.9077 3.32397C23.5602 3.41131 25.038 3.72238 25.8214 4.78926C26.833 6.16542 26.7974 9.25644 26.7974 9.25644C26.7974 9.25644 27.3785 17.7719 25.4399 18.8299C24.1092 19.5554 22.2838 18.074 18.3648 11.302C16.3567 7.83304 14.8406 3.99868 14.8406 3.99868C14.8406 3.99868 14.5483 3.28207 14.0269 2.89882C13.394 2.43445 12.5099 2.2865 12.5099 2.2865L3.12897 2.348C3.12897 2.348 1.72072 2.38721 1.20377 2.99954C0.74386 3.54412 1.16723 4.67072 1.16723 4.67072C1.16723 4.67072 8.51152 21.8531 16.8273 30.5121C24.4524 38.4509 33.1113 37.9295 33.1113 37.9295Z" fill="white"/>
</svg>
