<svg width="102" height="102" viewBox="0 0 102 102" fill="none" xmlns="http://www.w3.org/2000/svg">
<path d="M66.7331 0C47.7238 0 32.2585 15.4654 32.2585 34.4746C32.2585 38.7006 33.0093 42.8073 34.4919 46.7072L1.52839 79.6732C1.05724 80.1445 0.79248 80.7834 0.79248 81.4496V99.4877C0.79248 100.875 1.91727 102 3.30483 102H18.1697C18.8353 102 19.4736 101.736 19.9448 101.266L24.9541 96.2639C25.4263 95.7925 25.6914 95.1529 25.6914 94.4859V88.3348H31.8347C33.2223 88.3348 34.3471 87.21 34.3471 85.8224V83.3601H36.8096C38.197 83.3601 39.322 82.2353 39.322 80.8477V75.4417H44.728C45.3942 75.4417 46.0331 75.177 46.5044 74.7058L54.4973 66.713C58.3978 68.197 62.5051 68.9488 66.7327 68.9488C85.7419 68.9488 101.207 53.4835 101.207 34.4742C101.207 15.4654 85.7423 0 66.7331 0ZM66.7331 63.9241C62.6208 63.9241 58.6436 63.0936 54.9116 61.4552C53.9466 61.0317 52.8599 61.2647 52.1483 61.9582C52.1405 61.9656 52.1329 61.9716 52.1254 61.9793L43.6877 70.4171H36.81C35.4225 70.4171 34.2977 71.5418 34.2977 72.9294V78.3354H31.8351C30.4478 78.3354 29.3228 79.4602 29.3228 80.8477V83.3101H23.1793C21.7919 83.3101 20.6669 84.4349 20.6669 85.8224V93.444L17.1302 96.9751H5.81757V93.4248L36.5253 62.7173C37.4085 61.8341 37.4085 60.4025 36.5253 59.5196C35.6422 58.6367 34.211 58.6363 33.3273 59.5196L5.81757 87.0295V82.4905L39.2258 49.0799C39.2333 49.0724 39.2391 49.0654 39.2461 49.058C39.9398 48.347 40.1736 47.2603 39.7501 46.2945C38.1133 42.5627 37.2838 38.5857 37.2838 34.4748C37.2838 18.2361 50.495 5.02489 66.7337 5.02489C82.9724 5.02489 96.1832 18.2359 96.1832 34.4748C96.1828 50.7131 82.9714 63.9241 66.7331 63.9241Z" fill="#22297A"/>
<path d="M84.1693 29.0999C83.7037 26.9381 82.8373 24.8828 81.6148 23.0402C81.4319 22.7642 81.4512 22.4005 81.6626 22.1454L84.5079 18.7094L80.5836 14.7847L77.1477 17.6308C76.8938 17.841 76.5322 17.8616 76.2566 17.6807C74.406 16.4666 72.3499 15.5999 70.1889 15.1225C69.8709 15.052 69.6347 14.7847 69.6033 14.4604L69.1737 9.99999H63.8532L63.4236 14.4604C63.3925 14.7847 63.1559 15.052 62.8379 15.1225C60.6769 15.5999 58.6212 16.4666 56.7707 17.6807C56.4951 17.8616 56.1334 17.841 55.8792 17.6308L52.4437 14.7847L48.5185 18.709L51.3646 22.145C51.5761 22.4 51.5958 22.7633 51.4129 23.0394C50.1904 24.8824 49.324 26.9381 48.8592 29.0999C48.7912 29.4196 48.524 29.6579 48.1989 29.6894L43.7443 30.119V35.6891L48.1989 36.1187C48.5219 36.1501 48.7875 36.3872 48.8554 36.7043C49.3328 38.8653 50.1996 40.9214 51.4133 42.772C51.5941 43.048 51.574 43.4092 51.3634 43.6635L48.5454 47.0663L51.0789 49.307L55.5771 42.8521C50.281 37.0869 50.4274 28.0872 56.0143 22.4999C61.7513 16.7632 71.0859 16.7632 76.823 22.4999C82.4077 28.0847 82.5562 37.079 77.2672 42.8446L81.9358 49.3154L84.4798 47.0663L81.6618 43.6639C81.4512 43.4101 81.4306 43.0489 81.611 42.7728C82.8243 40.9219 83.6907 38.8657 84.1672 36.7047C84.2369 36.3872 84.5029 36.1501 84.8267 36.1187L89.2813 35.6891V30.119L84.8267 29.6894C84.502 29.6579 84.236 29.4192 84.1693 29.0999Z" fill="#22297A"/>
<path d="M68.4332 49.3519C68.1156 49.2562 67.8987 48.9638 67.8987 48.6324V34.4598C67.8987 34.1695 68.0657 33.9052 68.3283 33.7811C70.1872 32.8975 71.4857 30.8934 71.4857 28.9074C71.4857 26.7044 70.4578 25.0687 68.6266 24.2875L68.8628 27.3257C68.8817 27.5687 68.7814 27.8057 68.5943 27.9613C68.588 27.9668 68.5805 27.9722 68.5742 27.9777C67.1155 29.1125 65.0757 29.1243 63.604 28.0066L63.5721 27.9823C63.3674 27.8267 63.2562 27.5775 63.2776 27.3215L63.5226 24.3681C61.941 25.2457 60.9966 26.9175 60.9966 28.9565C60.9966 31.3893 62.371 33.3166 64.5869 33.9858C64.9033 34.0823 65.1185 34.3747 65.1164 34.7053V48.8287C65.1185 49.1199 64.9515 49.3855 64.6889 49.5101C63.1652 50.2233 61.5412 52.0423 61.5642 54.3498C61.5642 56.5389 62.5736 58.183 64.3721 58.9998L64.1393 55.988C64.12 55.738 64.2261 55.4951 64.4229 55.3394C65.882 54.2021 67.9239 54.1887 69.3977 55.3075L69.4296 55.3323C69.6339 55.4875 69.7446 55.7367 69.7232 55.9922L69.4774 58.9457C71.0565 58.071 72.008 56.4055 72.0269 54.3749C72.026 51.9484 70.6496 50.021 68.4332 49.3519Z" fill="#22297A"/>
</svg>
