<svg width="77" height="102" viewBox="0 0 77 102" fill="none" xmlns="http://www.w3.org/2000/svg">
<path fill-rule="evenodd" clip-rule="evenodd" d="M33.7571 70.3523L33.725 70.641L32.3845 82.6955L32.7894 83.9591C33.0969 84.303 33.5382 84.5 34.0001 84.5H42.5001C42.962 84.5 43.4033 84.303 43.7108 83.9591C44.0189 83.6146 44.1665 83.1537 44.1157 82.6956L42.7752 70.641L42.7431 70.3523L42.978 70.1814C45.0267 68.6913 46.2501 66.3362 46.2501 63.75C46.2501 59.3383 42.6619 55.7499 38.25 55.7499C33.8381 55.7499 30.2499 59.3383 30.2499 63.75C30.2499 66.3362 31.4735 68.6913 33.5222 70.1814L33.7571 70.3523ZM37.1058 69.6525C37.1819 68.9694 36.8194 68.3123 36.1977 68.01C34.5392 67.2061 33.5003 65.5748 33.5003 63.75C33.5 61.131 35.6311 59.0001 38.25 59.0001C40.8689 59.0001 42.9999 61.131 42.9999 63.75C42.9999 65.5748 41.961 67.2061 40.3025 68.01C39.6808 68.3123 39.3183 68.9696 39.3944 69.6525L40.623 80.6946L40.6848 81.2499H40.126H36.3742H35.8154L35.8772 80.6946L37.1058 69.6525Z" fill="#22297A"/>
<path fill-rule="evenodd" clip-rule="evenodd" d="M67.4999 38.25V38.75H67.9999H74.3749C75.2734 38.75 76 39.4766 76 40.3751V93.4999C76 97.9118 72.4118 101.5 68.0001 101.5H8.50007C4.08819 101.5 0.5 97.9118 0.5 93.5001V40.3751C0.5 39.4766 1.22662 38.75 2.12507 38.75H8.50007H9.00007V38.25V29.7499C9.00007 13.6218 22.1217 0.5 38.25 0.5C54.3783 0.5 67.4999 13.6218 67.4999 29.7499V38.25ZM64.25 38.75H63.75H59.5001H59.0001V38.25V29.7499C59.0001 18.3094 49.6905 8.99987 38.25 8.99987C26.8095 8.99987 17.4999 18.3096 17.4999 29.7499V38.25V38.75H16.9999H12.75H12.25V38.25V29.7499C12.25 15.4123 23.9124 3.74993 38.25 3.74993C52.5876 3.74993 64.25 15.4123 64.25 29.7499V38.25V38.75ZM55.7499 38.75H55.2499H21.2501H20.7501V38.25V29.7499C20.7501 20.1001 28.6002 12.25 38.25 12.25C47.8998 12.25 55.7499 20.1001 55.7499 29.7499V38.25V38.75ZM3.75013 41.9999H4.25013H72.2501H72.7501V42.4999V93.4999C72.7501 96.1189 70.6191 98.2499 68.0001 98.2499H8.50007C5.88111 98.2499 3.75013 96.1189 3.75013 93.4999V42.4999V41.9999Z" fill="#22297A"/>
<path d="M33.7571 70.3523L33.725 70.641L32.3845 82.6955M33.7571 70.3523L32.3845 82.6955M33.7571 70.3523L33.5222 70.1814C31.4735 68.6913 30.2499 66.3362 30.2499 63.75C30.2499 59.3383 33.8381 55.7499 38.25 55.7499C42.6619 55.7499 46.2501 59.3383 46.2501 63.75C46.2501 66.3362 45.0267 68.6913 42.978 70.1814L42.7431 70.3523L42.7752 70.641L44.1157 82.6956C44.1665 83.1537 44.0189 83.6146 43.7108 83.9591C43.4033 84.303 42.962 84.5 42.5001 84.5H34.0001C33.5382 84.5 33.0969 84.303 32.7894 83.9591M32.3845 82.6955C32.3339 83.1535 32.4813 83.6144 32.7894 83.9591M32.3845 82.6955L32.7894 83.9591M36.1977 68.01C36.8194 68.3123 37.1819 68.9694 37.1058 69.6525L35.8772 80.6946L35.8154 81.2499H36.3742H40.126H40.6848L40.623 80.6946L39.3944 69.6525C39.3183 68.9696 39.6808 68.3123 40.3025 68.01C41.961 67.2061 42.9999 65.5748 42.9999 63.75C42.9999 61.131 40.8689 59.0001 38.25 59.0001C35.6311 59.0001 33.5 61.131 33.5003 63.75C33.5003 65.5748 34.5392 67.2061 36.1977 68.01ZM36.1977 68.01L36.4158 67.56M67.4999 38.25V38.75H67.9999H74.3749C75.2734 38.75 76 39.4766 76 40.3751V93.4999C76 97.9118 72.4118 101.5 68.0001 101.5H8.50007C4.08819 101.5 0.5 97.9118 0.5 93.5001V40.3751C0.5 39.4766 1.22662 38.75 2.12507 38.75H8.50007H9.00007V38.25V29.7499C9.00007 13.6218 22.1217 0.5 38.25 0.5C54.3783 0.5 67.4999 13.6218 67.4999 29.7499V38.25ZM63.75 38.75H64.25V38.25V29.7499C64.25 15.4123 52.5876 3.74993 38.25 3.74993C23.9124 3.74993 12.25 15.4123 12.25 29.7499V38.25V38.75H12.75H16.9999H17.4999V38.25V29.7499C17.4999 18.3096 26.8095 8.99987 38.25 8.99987C49.6905 8.99987 59.0001 18.3094 59.0001 29.7499V38.25V38.75H59.5001H63.75ZM55.2499 38.75H55.7499V38.25V29.7499C55.7499 20.1001 47.8998 12.25 38.25 12.25C28.6002 12.25 20.7501 20.1001 20.7501 29.7499V38.25V38.75H21.2501H55.2499ZM4.25013 41.9999H3.75013V42.4999V93.4999C3.75013 96.1189 5.88111 98.2499 8.50007 98.2499H68.0001C70.6191 98.2499 72.7501 96.1189 72.7501 93.4999V42.4999V41.9999H72.2501H4.25013Z" stroke="#22297A"/>
</svg>
