<svg width="82" height="101" viewBox="0 0 82 101" fill="none" xmlns="http://www.w3.org/2000/svg">
<path d="M81.499 31.9591L74.6658 25.1259C74.3447 24.8116 73.9107 24.6271 73.4564 24.6271H71.7482V22.9187C71.7482 22.4644 71.5706 22.0304 71.2493 21.7092L57.583 8.04298C54.8395 5.30294 50.2511 0.71106 40.999 0.71106C31.7503 0.71106 27.5103 4.94756 24.4149 8.04298C23.9298 8.53161 23.7828 9.26959 24.0459 9.90844C24.309 10.5439 24.9343 10.9608 25.6243 10.9608C39.4034 10.9608 40.999 16.81 40.999 21.2105C40.999 26.5268 36.5744 30.0799 36.5267 30.1142C36.4993 30.1381 36.4857 30.1723 36.4583 30.1962C36.4309 30.2201 36.4002 30.2269 36.3763 30.2508L2.58293 64.0408C0.919113 65.7046 0 67.922 0 70.4741C0 75.3359 3.95304 79.2889 8.81478 79.2889C11.2919 79.2889 13.6698 78.2366 15.3405 76.4054L47.2753 41.2795C51.8808 37.8527 56.4727 35.7652 58.0819 35.9053V38.2935C58.0819 38.7478 58.263 39.1818 58.5808 39.503L67.1222 48.0443C67.4433 48.3587 67.8773 48.5432 68.3316 48.5432C68.3521 48.5432 68.3693 48.5432 68.3898 48.5432C68.8613 48.5296 69.3054 48.3177 69.6164 47.9624L81.5745 34.2961C82.1688 33.6161 82.1381 32.598 81.499 31.9591ZM12.8088 74.1061C11.7872 75.2335 10.3317 75.8759 8.81478 75.8759C5.83899 75.8759 3.41653 73.4501 3.41653 70.2727C3.41653 68.8308 3.9769 67.4745 4.99835 66.4564L37.5823 33.8725L43.7662 40.0564L12.8088 74.1061ZM68.2497 44.3339L61.4984 37.5827V34.8768C61.4984 34.4224 61.3173 33.9884 60.9996 33.6673C57.7743 30.442 50.357 34.887 46.3014 37.7603L40.0355 31.4944C41.7506 29.6802 44.4155 26.0756 44.4155 21.2105C44.4155 13.2124 39.499 8.69224 29.7822 7.73549C32.2764 5.74704 35.5597 4.12759 40.999 4.12759C48.8366 4.12759 52.6427 7.93712 55.1641 10.4586L68.3316 23.6226V26.3354C68.3316 27.2784 69.097 28.0437 70.04 28.0437H72.7493L77.9528 33.2472L68.2497 44.3339Z" fill="#22297A"/>
<path d="M54.3283 48C43.9551 48 35.5159 56.0359 35.5159 65.9133C35.5159 68.1092 35.9256 70.243 36.7346 72.2694L18.7468 89.3988C18.4897 89.6437 18.3452 89.9757 18.3452 90.3218V99.6946C18.3452 100.416 18.959 101 19.7162 101H27.8278C28.191 101 28.5393 100.863 28.7964 100.618L31.53 98.0195C31.7876 97.7746 31.9323 97.4422 31.9323 97.0956V93.8995H35.2846C36.0418 93.8995 36.6556 93.315 36.6556 92.594V91.3146H37.9994C38.7565 91.3146 39.3703 90.7301 39.3703 90.0091V87.2001H42.3203C42.6839 87.2001 43.0325 87.0626 43.2897 86.8177L47.6513 82.6646C49.7798 83.4357 52.0211 83.8263 54.3281 83.8263C64.7012 83.8263 73.1405 75.7904 73.1405 65.9131C73.1406 56.0359 64.7014 48 54.3283 48ZM54.3283 81.2155C52.0843 81.2155 49.9139 80.7839 47.8774 79.9326C47.3509 79.7125 46.7578 79.8336 46.3695 80.194C46.3653 80.1978 46.3611 80.2009 46.357 80.205L41.7526 84.5893H37.9996C37.2424 84.5893 36.6286 85.1737 36.6286 85.8947V88.7037H35.2849C34.5278 88.7037 33.9139 89.2881 33.9139 90.0091V91.2886H30.5615C29.8044 91.2886 29.1905 91.873 29.1905 92.594V96.5542L27.2605 98.389H21.0874V96.5443L37.8443 80.5884C38.3262 80.1295 38.3262 79.3856 37.8443 78.9268C37.3623 78.4681 36.5814 78.4679 36.0991 78.9268L21.0874 93.2212V90.8627L39.3178 73.5023C39.322 73.4984 39.3251 73.4948 39.3289 73.4909C39.7075 73.1215 39.8351 72.5568 39.604 72.055C38.7108 70.1159 38.2581 68.0494 38.2581 65.9134C38.2581 57.4756 45.4673 50.611 54.3286 50.611C63.1899 50.611 70.3989 57.4755 70.3989 65.9134C70.3986 74.3509 63.1893 81.2155 54.3283 81.2155Z" fill="#22297A"/>
<path d="M60.0534 55.5716C57.2218 55.5716 54.9182 57.765 54.9182 60.4613C54.9182 63.1576 57.2218 65.3511 60.0534 65.3511C62.8851 65.3511 65.1886 63.1576 65.1886 60.4613C65.1886 57.765 62.8852 55.5716 60.0534 55.5716ZM60.0534 62.7402C58.7338 62.7402 57.6602 61.7179 57.6602 60.4613C57.6602 59.2047 58.7338 58.1824 60.0534 58.1824C61.3731 58.1824 62.4467 59.2047 62.4467 60.4613C62.4467 61.7179 61.3731 62.7402 60.0534 62.7402Z" fill="#22297A"/>
</svg>
