<svg width="102" height="102" viewBox="0 0 102 102" fill="none" xmlns="http://www.w3.org/2000/svg">
<path d="M66.7331 0C47.7238 0 32.2585 15.4654 32.2585 34.4746C32.2585 38.7006 33.0093 42.8073 34.4919 46.7072L1.52839 79.6732C1.05724 80.1445 0.79248 80.7834 0.79248 81.4496V99.4877C0.79248 100.875 1.91727 102 3.30483 102H18.1697C18.8353 102 19.4736 101.736 19.9448 101.266L24.9541 96.2639C25.4263 95.7925 25.6914 95.1529 25.6914 94.4859V88.3348H31.8347C33.2223 88.3348 34.3471 87.21 34.3471 85.8224V83.3601H36.8096C38.197 83.3601 39.322 82.2353 39.322 80.8477V75.4417H44.728C45.3942 75.4417 46.0331 75.177 46.5044 74.7058L54.4973 66.713C58.3978 68.197 62.5051 68.9488 66.7327 68.9488C85.7419 68.9488 101.207 53.4835 101.207 34.4742C101.207 15.4654 85.7423 0 66.7331 0ZM66.7331 63.9241C62.6208 63.9241 58.6436 63.0936 54.9116 61.4552C53.9466 61.0317 52.8599 61.2647 52.1483 61.9582C52.1405 61.9656 52.1329 61.9716 52.1254 61.9793L43.6877 70.4171H36.81C35.4225 70.4171 34.2977 71.5418 34.2977 72.9294V78.3354H31.8351C30.4478 78.3354 29.3228 79.4602 29.3228 80.8477V83.3101H23.1793C21.7919 83.3101 20.6669 84.4349 20.6669 85.8224V93.444L17.1302 96.9751H5.81757V93.4248L36.5253 62.7173C37.4085 61.8341 37.4085 60.4025 36.5253 59.5196C35.6422 58.6367 34.211 58.6363 33.3273 59.5196L5.81757 87.0295V82.4905L39.2258 49.0799C39.2333 49.0724 39.2391 49.0654 39.2461 49.058C39.9398 48.347 40.1736 47.2603 39.7501 46.2945C38.1133 42.5627 37.2838 38.5857 37.2838 34.4748C37.2838 18.2361 50.495 5.02489 66.7337 5.02489C82.9724 5.02489 96.1832 18.2359 96.1832 34.4748C96.1828 50.7131 82.9714 63.9241 66.7331 63.9241Z" fill="#22297A"/>
<path d="M67.7536 14.0053C67.7371 14.0053 67.7305 14.0053 67.7239 14.0053C67.7107 14.0053 67.7107 14.0053 67.7074 14.0053C67.7074 14.0053 67.7074 14.0053 67.7025 14.0053C67.6975 14.0053 67.6909 14.0053 67.6843 14.0053C67.681 14.0053 67.681 14.0053 67.681 14.0053C67.681 14.0053 67.681 14.0053 67.6744 14.0053C67.6299 13.9956 67.6167 14.0021 67.5838 14.0021C62.3037 14.0021 57.1671 16.054 53.3707 19.6619L49.1968 15.5079C48.994 15.314 48.6874 15.2527 48.4368 15.3561C48.1747 15.4659 48 15.7115 48 15.9926V29.4804C48 29.8601 48.3149 30.167 48.6973 30.167H62.2905C62.2988 30.167 62.3136 30.167 62.3235 30.167C62.7093 30.167 63.0225 29.8617 63.0225 29.4804C63.0225 29.2283 62.8823 29.0054 62.673 28.8874L58.5502 24.7981C60.9949 22.4845 64.1846 21.2178 67.6827 21.2178C74.8205 21.263 80.6347 26.9906 80.6347 34.1028C80.5803 41.0923 74.7332 46.7811 67.4799 46.7811L67.4964 54H67.597C78.7719 54 87.9275 45.0847 88 34.0043C88 23.058 78.9268 14.0974 67.7536 14.0053Z" fill="#22297A"/>
</svg>
