<svg width="60" height="60" fill="none" xmlns="http://www.w3.org/2000/svg"><g clip-path="url(#clip0)" fill="#333"><path d="M46.071 19.285c0-.59-.48-1.07-1.071-1.07H25.714a1.071 1.071 0 000 2.142H45c.591 0 1.07-.48 1.071-1.072z"/><path d="M50.792 37.592c.195.087.36.23.473.411l2.998 4.797a25.599 25.599 0 001.45-8.514c0-11.024-6.972-20.448-16.738-24.097l-1.544 4.116-2.006-.753 1.511-4.03a25.596 25.596 0 00-5.865-.927v5.333h-2.143V4.287H16.071V38.57h8.571V22.316a3.214 3.214 0 011.072-6.245h19.285a3.214 3.214 0 011.072 6.245v17.327c0 .591-.48 1.071-1.072 1.071H15a1.07 1.07 0 01-1.07-1.071V14.214a25.73 25.73 0 00-6.194 7.206l4.53 2.265-.959 1.917-4.564-2.284A25.679 25.679 0 009.31 49.536l2.637-1.978.966-2.897a1.07 1.07 0 01.422-.553l3.214-2.142 1.189 1.782-2.909 1.94-.955 2.865c-.069.207-.2.388-.374.519l-2.846 2.134a25.931 25.931 0 004.45 4.029l4.362-6.543a1.07 1.07 0 01.892-.478h5.656l.827-2.482c.132-.396.483-.68.898-.726l9.643-1.071c.307-.034.614.066.842.275l9.49 8.699a25.842 25.842 0 005.547-7.67l-3.638-5.822-1.843-.819.87-1.958 2.143.952zm-29.364-2.235h-2.143v-2.143h2.143v2.143zm0-4.286h-2.143v-2.143h2.143v2.143zm0-4.286h-2.143v-2.142h2.143v2.142zm0-4.285h-2.143v-2.143h2.143V22.5zm0-4.286h-2.143v-2.143h2.143v2.143zm0-4.285h-2.143v-2.143h2.143v2.143zm0-4.286h-2.143V7.5h2.143v2.143zm4.286 4.285H23.57v-2.142h2.143v2.143zm0-4.285H23.57V7.5h2.143v2.143zM15 2.143h15A1.071 1.071 0 0030 0H15a1.071 1.071 0 000 2.143z"/><path d="M28.657 47.06l-.855 2.564a1.072 1.072 0 01-1.016.733H20.93l-4.032 6.047a25.66 25.66 0 0029.191-2.076l-8.955-8.21-8.478.942zm15.272-8.489V22.5H26.786v16.071H43.93zm-5.357-13.928h2.143v2.143h-2.143v-2.143zm0 4.285h2.143v2.143h-2.143v-2.143zm0 4.286h2.143v2.143h-2.143v-2.143zm-4.286-8.571h2.143v2.143h-2.143v-2.143zm0 4.285h2.143v2.143h-2.143v-2.143zm0 4.286h2.143v2.143h-2.143v-2.143zM30 24.643h2.143v2.143H30v-2.143zm0 4.285h2.143v2.143H30v-2.143zm0 4.286h2.143v2.143H30v-2.143z"/></g><defs><clipPath id="clip0"><path fill="#fff" d="M0 0h60v60H0z"/></clipPath></defs></svg>