<svg width="82" height="102" fill="none" xmlns="http://www.w3.org/2000/svg"><g clip-path="url(#clip0)"><path d="M81.499 32.96l-6.833-6.834a1.735 1.735 0 0 0-1.21-.499h-1.708V23.92c0-.455-.177-.889-.499-1.21L57.583 9.043c-2.743-2.74-7.332-7.332-16.584-7.332-9.249 0-13.489 4.237-16.584 7.332a1.723 1.723 0 0 0-.37 1.865 1.71 1.71 0 0 0 1.58 1.053c13.778 0 15.374 5.849 15.374 10.25 0 5.316-4.425 8.869-4.472 8.903-.028.024-.041.058-.069.082-.027.024-.058.03-.082.055L2.583 65.04C.919 66.705 0 68.922 0 71.474c0 4.862 3.953 8.815 8.815 8.815a8.855 8.855 0 0 0 6.526-2.884L47.275 42.28c4.606-3.426 9.198-5.514 10.807-5.374v2.389c0 .454.181.888.499 1.209l8.541 8.541c.321.315.755.5 1.21.5h.058a1.697 1.697 0 0 0 1.226-.582l11.959-13.666a1.708 1.708 0 0 0-.076-2.337zm-68.69 42.146a5.397 5.397 0 0 1-3.994 1.77c-2.976 0-5.398-2.426-5.398-5.603 0-1.442.56-2.798 1.581-3.817l32.584-32.584 6.184 6.184-30.957 34.05zm55.44-29.772l-6.75-6.751v-2.706a1.72 1.72 0 0 0-.5-1.21c-3.225-3.225-10.642 1.22-14.698 4.093l-6.266-6.266c1.716-1.814 4.38-5.418 4.38-10.284 0-7.998-4.916-12.518-14.633-13.475C32.276 6.747 35.56 5.128 41 5.128c7.838 0 11.644 3.81 14.165 6.33l13.168 13.165v2.712a1.71 1.71 0 0 0 1.708 1.709h2.71l5.203 5.203-9.703 11.087z" fill="#22297A" stroke="#22297A"/></g><g clip-path="url(#clip1)" fill="#22297A"><path d="M54.328 49c-10.373 0-18.812 8.036-18.812 17.913 0 2.196.41 4.33 1.219 6.356L18.747 90.4a1.275 1.275 0 0 0-.402.923v9.373c0 .721.614 1.305 1.371 1.305h8.112c.363 0 .711-.137.968-.382l2.734-2.599a1.27 1.27 0 0 0 .402-.923V94.9h3.353c.757 0 1.37-.584 1.37-1.305v-1.28H38c.758 0 1.371-.584 1.371-1.305V88.2h2.95c.364 0 .712-.138.97-.382l4.361-4.153a19.52 19.52 0 0 0 6.677 1.161c10.373 0 18.813-8.036 18.813-17.913S64.7 49 54.328 49zm0 33.216c-2.244 0-4.414-.432-6.45-1.283a1.422 1.422 0 0 0-1.508.261l-.013.011-4.604 4.384H38c-.758 0-1.371.585-1.371 1.306v2.809h-1.344c-.757 0-1.371.584-1.371 1.305v1.28H30.56c-.757 0-1.37.584-1.37 1.305v3.96l-1.93 1.835h-6.174v-1.845l16.757-15.956a1.136 1.136 0 0 0 0-1.661 1.278 1.278 0 0 0-1.745 0L21.087 94.22v-2.358l18.23-17.36.012-.012a1.26 1.26 0 0 0 .275-1.436 14.578 14.578 0 0 1-1.346-6.142c0-8.437 7.21-15.302 16.07-15.302 8.862 0 16.07 6.864 16.07 15.302 0 8.438-7.209 15.303-16.07 15.303z" stroke="#22297A"/><path d="M60.053 56.572c-2.831 0-5.135 2.193-5.135 4.89 0 2.696 2.304 4.89 5.135 4.89 2.832 0 5.136-2.194 5.136-4.89 0-2.697-2.304-4.89-5.136-4.89zm0 7.168c-1.32 0-2.393-1.022-2.393-2.279 0-1.256 1.074-2.279 2.393-2.279 1.32 0 2.394 1.023 2.394 2.28 0 1.256-1.074 2.278-2.394 2.278z"/></g><defs><clipPath id="clip0"><path fill="#fff" d="M0 0h82v82H0z"/></clipPath><clipPath id="clip1"><path fill="#fff" transform="translate(17.913 49)" d="M0 0h55.66v53H0z"/></clipPath></defs></svg>