<svg width="50" height="50" fill="none" xmlns="http://www.w3.org/2000/svg"><g clip-path="url(#clip0)" fill="#333"><path d="M25 26.915a2.6 2.6 0 0 0-1.297 4.85v2.89h2.594v-2.89A2.597 2.597 0 0 0 25 26.915zm.002-12.607a3.967 3.967 0 0 0-3.963 3.963v4.22h7.925v-4.22a3.967 3.967 0 0 0-3.962-3.963z"/><path d="M25 .001c-13.807 0-25 11.193-25 25 0 13.806 11.193 25 25 25 13.806 0 25-11.194 25-25C50 11.194 38.806 0 25 0zm7.681 37.853H17.32a2.938 2.938 0 0 1-2.938-2.938V25.43a2.938 2.938 0 0 1 2.334-2.875v-4.283c0-4.569 3.717-8.286 8.285-8.286 4.569 0 8.285 3.717 8.285 8.286v4.283a2.939 2.939 0 0 1 2.334 2.875v9.486a2.938 2.938 0 0 1-2.938 2.938z"/></g><defs><clipPath id="clip0"><path fill="#fff" d="M0 0h50v50H0z"/></clipPath></defs></svg>