<svg width="102" height="102" fill="none" xmlns="http://www.w3.org/2000/svg"><path d="M66.733 0c-19.01 0-34.475 15.465-34.475 34.475 0 4.226.751 8.332 2.234 12.232L1.528 79.673a2.513 2.513 0 00-.736 1.777v18.038A2.512 2.512 0 003.305 102H18.17c.665 0 1.304-.264 1.775-.734l5.01-5.002a2.512 2.512 0 00.736-1.778v-6.151h6.144a2.512 2.512 0 002.512-2.513V83.36h2.463a2.512 2.512 0 002.512-2.512v-5.406h5.406c.666 0 1.305-.265 1.776-.736l7.993-7.993a34.241 34.241 0 0012.236 2.236c19.009 0 34.474-15.465 34.474-34.475C101.207 15.465 85.742 0 66.733 0zm0 63.924c-4.112 0-8.09-.83-11.821-2.469a2.512 2.512 0 00-2.764.503l-.023.021-8.437 8.438H36.81a2.512 2.512 0 00-2.512 2.512v5.406h-2.463a2.512 2.512 0 00-2.512 2.513v2.462h-6.144a2.512 2.512 0 00-2.512 2.512v7.622l-3.537 3.531H5.818v-3.55l30.707-30.708a2.26 2.26 0 10-3.198-3.197L5.817 87.03v-4.54l33.409-33.41.02-.022a2.512 2.512 0 00.504-2.764 29.246 29.246 0 01-2.466-11.82c0-16.238 13.211-29.45 29.45-29.45 16.238 0 29.45 13.212 29.45 29.45-.001 16.24-13.213 29.45-29.45 29.45z" fill="#22297A"/><path d="M84.17 29.1a17.702 17.702 0 00-2.555-6.06.752.752 0 01.048-.895l2.845-3.436-3.924-3.924-3.436 2.846a.751.751 0 01-.891.05 18.23 18.23 0 00-6.068-2.559.752.752 0 01-.586-.662l-.43-4.46h-5.32l-.43 4.46a.752.752 0 01-.585.662 18.227 18.227 0 00-6.067 2.559.752.752 0 01-.892-.05l-3.435-2.846-3.925 3.924 2.846 3.436a.751.751 0 01.048.894 17.692 17.692 0 00-2.554 6.06.749.749 0 01-.66.59l-4.455.43v5.57l4.455.43a.745.745 0 01.656.585 18.238 18.238 0 002.558 6.068.751.751 0 01-.05.892l-2.818 3.402 2.534 2.241 4.498-6.455c-5.296-5.765-5.15-14.765.437-20.352 5.737-5.737 15.072-5.737 20.809 0 5.585 5.585 5.733 14.579.444 20.345l4.669 6.47 2.544-2.249-2.818-3.402a.751.751 0 01-.051-.891 18.229 18.229 0 002.556-6.068.75.75 0 01.66-.586l4.454-.43v-5.57l-4.454-.43a.745.745 0 01-.658-.59z" fill="#22297A"/><path d="M68.433 49.352a.751.751 0 01-.534-.72V34.46a.75.75 0 01.43-.679c1.858-.883 3.157-2.888 3.157-4.874 0-2.203-1.028-3.838-2.86-4.62l.237 3.039a.751.751 0 01-.269.635l-.02.017a4.078 4.078 0 01-4.97.029l-.032-.025a.752.752 0 01-.294-.66l.245-2.954c-1.582.878-2.526 2.55-2.526 4.588 0 2.433 1.374 4.36 3.59 5.03a.747.747 0 01.53.72v14.123a.748.748 0 01-.428.681c-1.524.713-3.148 2.532-3.125 4.84 0 2.189 1.01 3.833 2.808 4.65l-.233-3.012a.753.753 0 01.284-.649 4.08 4.08 0 014.975-.032l.032.025a.75.75 0 01.293.66l-.246 2.954c1.58-.875 2.531-2.54 2.55-4.571-.001-2.427-1.377-4.354-3.594-5.023z" fill="#22297A"/></svg>