<svg width="77" height="102" fill="none" xmlns="http://www.w3.org/2000/svg"><path fill-rule="evenodd" clip-rule="evenodd" d="M33.757 70.352l-.032.289-1.34 12.054.404 1.264c.308.344.75.541 1.211.541h8.5a1.626 1.626 0 0 0 1.616-1.804l-1.34-12.055-.033-.289.235-.17a7.907 7.907 0 0 0 3.272-6.432c0-4.412-3.588-8-8-8s-8 3.588-8 8a7.907 7.907 0 0 0 3.272 6.431l.235.171zm3.349-.7a1.626 1.626 0 0 0-.908-1.642c-1.659-.804-2.698-2.435-2.698-4.26 0-2.619 2.131-4.75 4.75-4.75S43 61.131 43 63.75c0 1.825-1.039 3.456-2.697 4.26-.622.302-.985.96-.909 1.642l1.229 11.043.062.555h-4.87l.062-.555 1.229-11.042z" fill="#22297A"/><path fill-rule="evenodd" clip-rule="evenodd" d="M67.5 38.25v.5h6.875c.898 0 1.625.727 1.625 1.625V93.5c0 4.412-3.588 8-8 8H8.5c-4.412 0-8-3.588-8-8V40.375c0-.898.727-1.625 1.625-1.625H9v-9C9 13.622 22.122.5 38.25.5S67.5 13.622 67.5 29.75v8.5zm-3.25.5H59v-9C59 18.31 49.69 9 38.25 9S17.5 18.31 17.5 29.75v9h-5.25v-9c0-14.338 11.662-26 26-26s26 11.662 26 26v9zm-8.5 0h-35v-9c0-9.65 7.85-17.5 17.5-17.5s17.5 7.85 17.5 17.5v9zM3.75 42h69v51.5A4.756 4.756 0 0 1 68 98.25H8.5a4.756 4.756 0 0 1-4.75-4.75V42z" fill="#22297A"/><path d="M33.757 70.352l-.032.289-1.34 12.054m1.372-12.343l-1.372 12.343m1.372-12.343l-.235-.17a7.907 7.907 0 0 1-3.272-6.432c0-4.412 3.588-8 8-8s8 3.588 8 8a7.907 7.907 0 0 1-3.272 6.431l-.235.171.032.289 1.34 12.055A1.626 1.626 0 0 1 42.5 84.5h-8.499c-.462 0-.903-.197-1.21-.54m-.405-1.264a1.63 1.63 0 0 0 .404 1.263m-.404-1.264l.404 1.264m3.409-15.949c.621.302.984.96.908 1.642l-1.229 11.043-.062.555h4.87l-.062-.555-1.229-11.042a1.626 1.626 0 0 1 .909-1.643C41.96 67.206 43 65.575 43 63.75A4.755 4.755 0 0 0 38.25 59a4.755 4.755 0 0 0-4.75 4.75c0 1.825 1.04 3.456 2.698 4.26zm0 0l.218-.45M67.5 38.25v.5h6.875c.898 0 1.625.727 1.625 1.625V93.5c0 4.412-3.588 8-8 8H8.5c-4.412 0-8-3.588-8-8V40.375c0-.898.727-1.625 1.625-1.625H9v-9C9 13.622 22.122.5 38.25.5S67.5 13.622 67.5 29.75v8.5zm-3.75.5h.5v-9c0-14.338-11.662-26-26-26s-26 11.662-26 26v9h5.25v-9C17.5 18.31 26.81 9 38.25 9S59 18.31 59 29.75v9h4.75zm-8.5 0h.5v-9c0-9.65-7.85-17.5-17.5-17.5s-17.5 7.85-17.5 17.5v9h34.5zM4.25 42h-.5v51.5a4.756 4.756 0 0 0 4.75 4.75H68a4.756 4.756 0 0 0 4.75-4.75V42H4.25z" stroke="#22297A"/></svg>