<svg width="102" height="102" fill="none" xmlns="http://www.w3.org/2000/svg"><path d="M66.733 0c-19.01 0-34.475 15.465-34.475 34.475 0 4.226.751 8.332 2.234 12.232L1.528 79.673a2.513 2.513 0 00-.736 1.777v18.038A2.512 2.512 0 003.305 102H18.17c.665 0 1.304-.264 1.775-.734l5.01-5.002a2.512 2.512 0 00.736-1.778v-6.151h6.144a2.512 2.512 0 002.512-2.513V83.36h2.463a2.512 2.512 0 002.512-2.512v-5.406h5.406c.666 0 1.305-.265 1.776-.736l7.993-7.993a34.241 34.241 0 0012.236 2.236c19.009 0 34.474-15.465 34.474-34.475C101.207 15.465 85.742 0 66.733 0zm0 63.924c-4.112 0-8.09-.83-11.821-2.469a2.512 2.512 0 00-2.764.503l-.023.021-8.437 8.438H36.81a2.512 2.512 0 00-2.512 2.512v5.406h-2.463a2.512 2.512 0 00-2.512 2.513v2.462h-6.144a2.512 2.512 0 00-2.512 2.512v7.622l-3.537 3.531H5.818v-3.55l30.707-30.708a2.26 2.26 0 10-3.198-3.197L5.817 87.03v-4.54l33.409-33.41.02-.022a2.512 2.512 0 00.504-2.764 29.246 29.246 0 01-2.466-11.82c0-16.238 13.211-29.45 29.45-29.45 16.238 0 29.45 13.212 29.45 29.45-.001 16.24-13.213 29.45-29.45 29.45z" fill="#22297A"/><path d="M67.754 14.005h-.08c-.044-.01-.057-.003-.09-.003-5.28 0-10.417 2.052-14.213 5.66l-4.174-4.154a.722.722 0 00-.76-.152.693.693 0 00-.437.637V29.48c0 .38.315.687.697.687h13.627a.692.692 0 00.699-.687.682.682 0 00-.35-.593l-4.123-4.089c2.445-2.313 5.635-3.58 9.133-3.58 7.137.045 12.952 5.773 12.952 12.885-.055 6.99-5.902 12.678-13.155 12.678L67.496 54h.101C78.772 54 87.927 45.085 88 34.004c0-10.946-9.073-19.907-20.246-19.999z" fill="#22297A"/></svg>