<svg width="60" height="60" viewBox="0 0 60 60" fill="none" xmlns="http://www.w3.org/2000/svg">
<path d="M24.9996 0C11.1929 0 0 11.1932 0 24.9996C0 38.806 11.1929 50 24.9996 50C38.8063 50 50 38.806 50 24.9996C50 11.1932 38.8063 0 24.9996 0ZM35.8076 29.7545H25.2088C25.1729 29.7545 25.1396 29.7458 25.1041 29.7445C25.0686 29.7462 25.0354 29.7545 24.9994 29.7545C24.0446 29.7545 23.2704 28.9803 23.2704 28.0255V10.375C23.2704 9.42016 24.0446 8.64598 24.9994 8.64598C25.9543 8.64598 26.7284 9.42016 26.7284 10.375V26.2964H35.8069C36.7618 26.2964 37.536 27.0706 37.536 28.0255C37.536 28.9803 36.7624 29.7545 35.8076 29.7545Z" fill="#333333"/>
</svg>
