<svg width="60" height="60" viewBox="0 0 60 60" fill="none" xmlns="http://www.w3.org/2000/svg">
<g clip-path="url(#clip0)">
<path d="M46.0711 19.2855C46.0704 18.6941 45.5911 18.2148 44.9996 18.2141H25.714C25.1223 18.2141 24.6426 18.6938 24.6426 19.2855C24.6426 19.8772 25.1223 20.357 25.714 20.357H44.9996C45.5912 20.3563 46.0704 19.877 46.0711 19.2855Z" fill="#333333"/>
<path d="M50.7917 37.5921C50.9869 37.679 51.1518 37.8222 51.2651 38.0034L54.2628 42.8003C55.2252 40.0646 55.7158 37.1855 55.7136 34.2855C55.7136 23.2623 48.7409 13.8382 38.9749 10.1888L37.4311 14.3048L35.4249 13.5521L36.9361 9.52223C35.0236 8.98678 33.0553 8.67567 31.0709 8.59531V13.9285H28.928V4.28564H16.071V38.5712H24.6423V22.3156C22.9689 21.7231 22.0926 19.8862 22.6851 18.2128C23.1394 16.9297 24.3527 16.0718 25.7138 16.0713H44.9994C46.7746 16.072 48.2131 17.5117 48.2123 19.2869C48.2118 20.648 47.3539 21.8613 46.0708 22.3156V39.6426C46.0708 40.2343 45.5911 40.7141 44.9994 40.7141H14.9995C14.4078 40.7141 13.9281 40.2343 13.9281 39.6426V14.2144C11.4344 16.2109 9.33438 18.6544 7.73528 21.4197L12.2645 23.685L11.3061 25.6015L6.74194 23.3184C2.70856 31.8641 3.69454 41.9345 9.30893 49.5356L11.946 47.5578L12.9115 44.6609C12.9869 44.4348 13.1354 44.2405 13.3336 44.1083L16.5479 41.9655L17.7366 43.7483L14.8282 45.6873L13.8731 48.5534C13.8041 48.7602 13.6738 48.941 13.4994 49.0717L10.6533 51.2062C11.9756 52.7168 13.4689 54.0687 15.1031 55.2348L19.4651 48.6916C19.6637 48.3934 19.9983 48.2142 20.3567 48.214H26.013L26.8401 45.7323C26.9723 45.3359 27.3229 45.0525 27.7382 45.0063L37.381 43.9349C37.6884 43.9007 37.9955 44.001 38.2234 44.21L47.7129 52.9087C50.0184 50.7157 51.899 48.1156 53.2602 45.2395L49.6218 39.4171L47.7785 38.598L48.6491 36.6398L50.7917 37.5921ZM21.4281 35.3569H19.2852V33.2141H21.4281V35.3569ZM21.4281 31.0712H19.2852V28.9284H21.4281V31.0712ZM21.4281 26.7855H19.2852V24.6427H21.4281V26.7855ZM21.4281 22.4999H19.2852V20.357H21.4281V22.4999ZM21.4281 18.2142H19.2852V16.0713H21.4281V18.2142ZM21.4281 13.9285H19.2852V11.7856H21.4281V13.9285ZM21.4281 9.64276H19.2852V7.49992H21.4281V9.64276ZM25.7138 13.9285H23.5709V11.7856H25.7138V13.9285ZM25.7138 9.64276H23.5709V7.49992H25.7138V9.64276Z" fill="#333333"/>
<path d="M15.0001 2.14285H30.0001C30.5918 2.14285 31.0715 1.66312 31.0715 1.07142C31.0715 0.47973 30.5918 0 30.0001 0H15.0001C14.4084 0 13.9287 0.47973 13.9287 1.07142C13.9287 1.66312 14.4084 2.14285 15.0001 2.14285Z" fill="#333333"/>
<path d="M28.657 47.0605L27.8024 49.6244C27.6565 50.0619 27.2471 50.357 26.7859 50.357H20.9306L16.8994 56.4038C26.1092 61.8722 37.7468 61.0446 46.0901 54.3279L37.1346 46.1182L28.657 47.0605Z" fill="#333333"/>
<path d="M43.9289 38.5714V22.5H26.7861V38.5714H43.9289ZM38.5718 24.6428H40.7146V26.7857H38.5718V24.6428ZM38.5718 28.9285H40.7146V31.0714H38.5718V28.9285ZM38.5718 33.2142H40.7146V35.3571H38.5718V33.2142ZM34.2861 24.6428H36.4289V26.7857H34.2861V24.6428ZM34.2861 28.9285H36.4289V31.0714H34.2861V28.9285ZM34.2861 33.2142H36.4289V35.3571H34.2861V33.2142ZM30.0004 24.6428H32.1433V26.7857H30.0004V24.6428ZM30.0004 28.9285H32.1433V31.0714H30.0004V28.9285ZM30.0004 33.2142H32.1433V35.3571H30.0004V33.2142Z" fill="#333333"/>
</g>
<defs>
<clipPath id="clip0">
<rect width="60" height="60" fill="white"/>
</clipPath>
</defs>
</svg>
