<svg width="82" height="102" viewBox="0 0 82 102" fill="none" xmlns="http://www.w3.org/2000/svg">
<g clip-path="url(#clip0)">
<path d="M81.499 32.9591L74.6658 26.1259C74.3447 25.8116 73.9107 25.6271 73.4564 25.6271H71.7482V23.9187C71.7482 23.4644 71.5706 23.0304 71.2493 22.7092L57.583 9.04298C54.8395 6.30294 50.2511 1.71106 40.999 1.71106C31.7503 1.71106 27.5103 5.94756 24.4149 9.04298C23.9298 9.53161 23.7828 10.2696 24.0459 10.9084C24.309 11.5439 24.9343 11.9608 25.6243 11.9608C39.4034 11.9608 40.999 17.81 40.999 22.2105C40.999 27.5268 36.5744 31.0799 36.5267 31.1142C36.4993 31.1381 36.4857 31.1723 36.4583 31.1962C36.4309 31.2201 36.4002 31.2269 36.3763 31.2508L2.58293 65.0408C0.919113 66.7046 0 68.922 0 71.4741C0 76.3359 3.95304 80.2889 8.81478 80.2889C11.2919 80.2889 13.6698 79.2366 15.3405 77.4054L47.2753 42.2795C51.8808 38.8527 56.4727 36.7652 58.0819 36.9053V39.2935C58.0819 39.7478 58.263 40.1818 58.5808 40.503L67.1222 49.0443C67.4433 49.3587 67.8773 49.5432 68.3316 49.5432C68.3521 49.5432 68.3693 49.5432 68.3898 49.5432C68.8613 49.5296 69.3054 49.3177 69.6164 48.9624L81.5745 35.2961C82.1688 34.6161 82.1381 33.598 81.499 32.9591ZM12.8088 75.1061C11.7872 76.2335 10.3317 76.8759 8.81478 76.8759C5.83899 76.8759 3.41653 74.4501 3.41653 71.2727C3.41653 69.8308 3.9769 68.4745 4.99835 67.4564L37.5823 34.8725L43.7662 41.0564L12.8088 75.1061ZM68.2497 45.3339L61.4984 38.5827V35.8768C61.4984 35.4224 61.3173 34.9884 60.9996 34.6673C57.7743 31.442 50.357 35.887 46.3014 38.7603L40.0355 32.4944C41.7506 30.6802 44.4155 27.0756 44.4155 22.2105C44.4155 14.2124 39.499 9.69224 29.7822 8.73549C32.2764 6.74704 35.5597 5.12759 40.999 5.12759C48.8366 5.12759 52.6427 8.93712 55.1641 11.4586L68.3316 24.6226V27.3354C68.3316 28.2784 69.097 29.0437 70.04 29.0437H72.7493L77.9528 34.2472L68.2497 45.3339Z" fill="#22297A" stroke="#22297A"/>
</g>
<g clip-path="url(#clip1)">
<path d="M54.3283 49C43.9551 49 35.5159 57.0359 35.5159 66.9133C35.5159 69.1092 35.9256 71.243 36.7346 73.2694L18.7468 90.3988C18.4897 90.6437 18.3452 90.9757 18.3452 91.3218V100.695C18.3452 101.416 18.959 102 19.7162 102H27.8278C28.191 102 28.5393 101.863 28.7964 101.618L31.53 99.0195C31.7876 98.7746 31.9323 98.4422 31.9323 98.0956V94.8994H35.2846C36.0418 94.8994 36.6556 94.315 36.6556 93.594V92.3146H37.9994C38.7565 92.3146 39.3703 91.7301 39.3703 91.0091V88.2001H42.3203C42.6839 88.2001 43.0325 88.0625 43.2897 87.8177L47.6513 83.6646C49.7798 84.4357 52.0211 84.8263 54.3281 84.8263C64.7012 84.8263 73.1405 76.7904 73.1405 66.9131C73.1406 57.0359 64.7014 49 54.3283 49ZM54.3283 82.2155C52.0843 82.2155 49.9139 81.7839 47.8774 80.9326C47.3508 80.7125 46.7578 80.8336 46.3695 81.194C46.3653 81.1978 46.3611 81.2009 46.357 81.205L41.7526 85.5893H37.9996C37.2424 85.5893 36.6286 86.1737 36.6286 86.8947V89.7037H35.2849C34.5278 89.7037 33.9139 90.2881 33.9139 91.0091V92.2886H30.5615C29.8044 92.2886 29.1905 92.873 29.1905 93.594V97.5542L27.2605 99.389H21.0874V97.5443L37.8443 81.5884C38.3262 81.1295 38.3262 80.3856 37.8443 79.9268C37.3623 79.4681 36.5814 79.4679 36.0991 79.9268L21.0874 94.2212V91.8627L39.3178 74.5023C39.322 74.4984 39.3251 74.4948 39.3289 74.4909C39.7075 74.1215 39.8351 73.5568 39.604 73.055C38.7108 71.1159 38.2581 69.0494 38.2581 66.9134C38.2581 58.4756 45.4673 51.611 54.3286 51.611C63.1899 51.611 70.3989 58.4755 70.3989 66.9134C70.3986 75.3509 63.1893 82.2155 54.3283 82.2155Z" fill="#22297A" stroke="#22297A"/>
<path d="M60.0534 56.5715C57.2218 56.5715 54.9182 58.765 54.9182 61.4613C54.9182 64.1576 57.2218 66.3511 60.0534 66.3511C62.8851 66.3511 65.1886 64.1576 65.1886 61.4613C65.1886 58.765 62.8852 56.5715 60.0534 56.5715ZM60.0534 63.7402C58.7338 63.7402 57.6602 62.7179 57.6602 61.4613C57.6602 60.2047 58.7338 59.1824 60.0534 59.1824C61.3731 59.1824 62.4467 60.2047 62.4467 61.4613C62.4467 62.7179 61.3731 63.7402 60.0534 63.7402Z" fill="#22297A"/>
</g>
<defs>
<clipPath id="clip0">
<rect width="82" height="82" fill="white"/>
</clipPath>
<clipPath id="clip1">
<rect width="55.6602" height="53" fill="white" transform="translate(17.9128 49)"/>
</clipPath>
</defs>
</svg>
