<svg width="50" height="50" viewBox="0 0 50 50" fill="none" xmlns="http://www.w3.org/2000/svg">
<g clip-path="url(#clip0)">
<path d="M25.0001 26.9146C23.5646 26.9146 22.4004 28.0782 22.4004 29.5143C22.4004 30.4769 22.9252 31.3155 23.7032 31.7651V34.6553H26.297V31.7651C27.075 31.3156 27.5998 30.4769 27.5998 29.5143C27.5998 28.0782 26.4358 26.9146 25.0001 26.9146Z" fill="#333333"/>
<path d="M25.0016 14.3083C22.8164 14.3083 21.0391 16.0859 21.0391 18.2709V22.4908H28.9639V18.2709C28.9637 16.0862 27.1863 14.3083 25.0016 14.3083Z" fill="#333333"/>
<path d="M24.9996 0.000976562C11.1929 0.000976562 0 11.1942 0 25.0009C0 38.8073 11.1929 50.0008 24.9996 50.0008C38.8063 50.0008 50 38.8071 50 25.0009C50 11.1942 38.8063 0.000976562 24.9996 0.000976562ZM32.6814 37.8544H17.319C15.6966 37.8544 14.3812 36.5391 14.3812 34.9162V25.4296C14.3812 24.0144 15.3824 22.8325 16.7151 22.5545V18.2716C16.7151 13.7034 20.4318 9.98631 25.0004 9.98631C29.5687 9.98631 33.2854 13.703 33.2854 18.2716V22.5545C34.6176 22.8334 35.6188 24.0144 35.6188 25.4296V34.9162H35.6191C35.6191 36.5389 34.3037 37.8544 32.6814 37.8544Z" fill="#333333"/>
</g>
<defs>
<clipPath id="clip0">
<rect width="50" height="50" fill="white"/>
</clipPath>
</defs>
</svg>
